<svg preserveAspectRatio="none" overflow="visible" style="display: block;" width="26" height="26" viewBox="0 0 26 26" fill="none" xmlns="http://www.w3.org/2000/svg">
<g id="Frame">
<path id="Vector" d="M6.5 15.1667C7.69662 15.1667 8.66667 14.1966 8.66667 13C8.66667 11.8034 7.69662 10.8333 6.5 10.8333C5.30338 10.8333 4.33333 11.8034 4.33333 13C4.33333 14.1966 5.30338 15.1667 6.5 15.1667Z" stroke="#AFA7C6" stroke-width="1.8" stroke-linecap="round" stroke-linejoin="round"/>
<path id="Vector_2" d="M18.4167 8.66667C19.6133 8.66667 20.5833 7.69662 20.5833 6.5C20.5833 5.30338 19.6133 4.33333 18.4167 4.33333C17.22 4.33333 16.25 5.30338 16.25 6.5C16.25 7.69662 17.22 8.66667 18.4167 8.66667Z" stroke="#AFA7C6" stroke-width="1.8" stroke-linecap="round" stroke-linejoin="round"/>
<path id="Vector_3" d="M18.4167 21.6667C19.6133 21.6667 20.5833 20.6966 20.5833 19.5C20.5833 18.3034 19.6133 17.3333 18.4167 17.3333C17.22 17.3333 16.25 18.3034 16.25 19.5C16.25 20.6966 17.22 21.6667 18.4167 21.6667Z" stroke="#AFA7C6" stroke-width="1.8" stroke-linecap="round" stroke-linejoin="round"/>
<path id="Vector_4" d="M8.66667 11.9167L16.25 7.58333M8.66667 14.0833L16.25 18.4167" stroke="#AFA7C6" stroke-width="1.8" stroke-linecap="round" stroke-linejoin="round"/>
</g>
</svg>
